<mxfile host="app.diagrams.net" modified="2021-07-30T06:17:11.723Z" agent="5.0 (Macintosh; Intel Mac OS X 10_15_7) AppleWebKit/537.36 (KHTML, like Gecko) Chrome/91.0.4472.114 Safari/537.36" etag="lOId_ejwb_AIGNYCFRll" version="14.9.0" type="github">
  <diagram id="7NMzDTsTBacEh3rQD_51" name="Page-1">
    <mxGraphModel dx="969" dy="596" grid="1" gridSize="10" guides="1" tooltips="1" connect="1" arrows="1" fold="1" page="1" pageScale="1" pageWidth="827" pageHeight="1169" math="0" shadow="0">
      <root>
        <mxCell id="0" />
        <mxCell id="1" parent="0" />
        <mxCell id="J3v_I8ZAM5pnc3WIz0Ya-24" value="" style="rounded=0;whiteSpace=wrap;html=1;" vertex="1" parent="1">
          <mxGeometry x="160" y="160" width="880" height="550" as="geometry" />
        </mxCell>
        <mxCell id="J3v_I8ZAM5pnc3WIz0Ya-26" value="资讯流转" style="strokeWidth=2;html=1;shape=mxgraph.flowchart.stored_data;whiteSpace=wrap;" vertex="1" parent="1">
          <mxGeometry x="160" y="160" width="90" height="50" as="geometry" />
        </mxCell>
        <mxCell id="J3v_I8ZAM5pnc3WIz0Ya-27" value="" style="endArrow=none;dashed=1;html=1;dashPattern=1 3;strokeWidth=2;startArrow=none;" edge="1" parent="1">
          <mxGeometry width="50" height="50" relative="1" as="geometry">
            <mxPoint x="291.01391534109825" y="487.80999999999995" as="sourcePoint" />
            <mxPoint x="290" y="140" as="targetPoint" />
          </mxGeometry>
        </mxCell>
        <mxCell id="J3v_I8ZAM5pnc3WIz0Ya-28" value="&lt;span style=&quot;font-size: 14px&quot;&gt;服务商&lt;/span&gt;" style="rounded=0;whiteSpace=wrap;html=1;" vertex="1" parent="1">
          <mxGeometry x="241.1" y="80" width="100" height="40" as="geometry" />
        </mxCell>
        <mxCell id="J3v_I8ZAM5pnc3WIz0Ya-29" value="&lt;span style=&quot;font-size: 14px&quot;&gt;文章资讯&lt;/span&gt;" style="rounded=0;whiteSpace=wrap;html=1;" vertex="1" parent="1">
          <mxGeometry x="390.02" y="80" width="100" height="40" as="geometry" />
        </mxCell>
        <mxCell id="J3v_I8ZAM5pnc3WIz0Ya-31" value="" style="endArrow=none;dashed=1;html=1;dashPattern=1 3;strokeWidth=2;" edge="1" parent="1">
          <mxGeometry width="50" height="50" relative="1" as="geometry">
            <mxPoint x="440" y="730" as="sourcePoint" />
            <mxPoint x="440" y="140" as="targetPoint" />
          </mxGeometry>
        </mxCell>
        <mxCell id="J3v_I8ZAM5pnc3WIz0Ya-32" value="" style="endArrow=none;dashed=1;html=1;dashPattern=1 3;strokeWidth=2;" edge="1" parent="1">
          <mxGeometry width="50" height="50" relative="1" as="geometry">
            <mxPoint x="600" y="720" as="sourcePoint" />
            <mxPoint x="600" y="140" as="targetPoint" />
          </mxGeometry>
        </mxCell>
        <mxCell id="J3v_I8ZAM5pnc3WIz0Ya-33" value="" style="endArrow=none;dashed=1;html=1;dashPattern=1 3;strokeWidth=2;startArrow=none;" edge="1" parent="1" source="J3v_I8ZAM5pnc3WIz0Ya-72">
          <mxGeometry width="50" height="50" relative="1" as="geometry">
            <mxPoint x="760" y="730" as="sourcePoint" />
            <mxPoint x="760" y="140" as="targetPoint" />
          </mxGeometry>
        </mxCell>
        <mxCell id="J3v_I8ZAM5pnc3WIz0Ya-34" value="&lt;span style=&quot;font-size: 14px&quot;&gt;消息队列&lt;/span&gt;" style="rounded=0;whiteSpace=wrap;html=1;" vertex="1" parent="1">
          <mxGeometry x="550" y="80" width="100" height="40" as="geometry" />
        </mxCell>
        <mxCell id="J3v_I8ZAM5pnc3WIz0Ya-35" value="" style="endArrow=none;dashed=1;html=1;dashPattern=1 3;strokeWidth=2;entryX=0.5;entryY=1;entryDx=0;entryDy=0;" edge="1" parent="1">
          <mxGeometry width="50" height="50" relative="1" as="geometry">
            <mxPoint x="920" y="720" as="sourcePoint" />
            <mxPoint x="920" y="120" as="targetPoint" />
          </mxGeometry>
        </mxCell>
        <mxCell id="J3v_I8ZAM5pnc3WIz0Ya-36" value="" style="rounded=0;whiteSpace=wrap;html=1;rotation=-90;" vertex="1" parent="1">
          <mxGeometry x="240.16" y="272.36" width="95.95" height="11.25" as="geometry" />
        </mxCell>
        <mxCell id="J3v_I8ZAM5pnc3WIz0Ya-37" value="" style="endArrow=classic;html=1;" edge="1" parent="1">
          <mxGeometry width="50" height="50" relative="1" as="geometry">
            <mxPoint x="430" y="257.33" as="sourcePoint" />
            <mxPoint x="310" y="257.33" as="targetPoint" />
          </mxGeometry>
        </mxCell>
        <mxCell id="J3v_I8ZAM5pnc3WIz0Ya-38" value="" style="rounded=0;whiteSpace=wrap;html=1;rotation=-90;fillColor=#7EA6E0;" vertex="1" parent="1">
          <mxGeometry x="319.46" y="346.04" width="241.09" height="11.25" as="geometry" />
        </mxCell>
        <mxCell id="J3v_I8ZAM5pnc3WIz0Ya-42" value="&lt;font style=&quot;font-size: 14px&quot;&gt;4. 数据发布&lt;/font&gt;" style="text;html=1;strokeColor=none;fillColor=none;align=center;verticalAlign=middle;whiteSpace=wrap;rounded=0;" vertex="1" parent="1">
          <mxGeometry x="440.19" y="420" width="140" height="20" as="geometry" />
        </mxCell>
        <mxCell id="J3v_I8ZAM5pnc3WIz0Ya-44" value="" style="endArrow=classic;html=1;" edge="1" parent="1">
          <mxGeometry width="50" height="50" relative="1" as="geometry">
            <mxPoint x="457.38000000000005" y="450" as="sourcePoint" />
            <mxPoint x="580.19" y="450" as="targetPoint" />
          </mxGeometry>
        </mxCell>
        <mxCell id="J3v_I8ZAM5pnc3WIz0Ya-45" value="" style="rounded=0;whiteSpace=wrap;html=1;rotation=-90;" vertex="1" parent="1">
          <mxGeometry x="471.11" y="532.34" width="257.77" height="11.25" as="geometry" />
        </mxCell>
        <mxCell id="J3v_I8ZAM5pnc3WIz0Ya-46" value="&lt;font style=&quot;font-size: 14px&quot;&gt;2. 数据清洗&amp;nbsp;&amp;nbsp;&lt;/font&gt;" style="text;html=1;strokeColor=none;fillColor=none;align=center;verticalAlign=middle;whiteSpace=wrap;rounded=0;" vertex="1" parent="1">
          <mxGeometry x="467.83000000000004" y="263.61" width="113" height="20" as="geometry" />
        </mxCell>
        <mxCell id="J3v_I8ZAM5pnc3WIz0Ya-52" value="" style="endArrow=none;dashed=1;html=1;dashPattern=1 3;strokeWidth=2;" edge="1" parent="1">
          <mxGeometry width="50" height="50" relative="1" as="geometry">
            <mxPoint x="290" y="730" as="sourcePoint" />
            <mxPoint x="290.9529245481049" y="543.44" as="targetPoint" />
          </mxGeometry>
        </mxCell>
        <mxCell id="J3v_I8ZAM5pnc3WIz0Ya-54" value="" style="rounded=0;whiteSpace=wrap;html=1;rotation=-90;fillColor=#9AC7BF;" vertex="1" parent="1">
          <mxGeometry x="386.1" y="576.1" width="107.83" height="11.25" as="geometry" />
        </mxCell>
        <mxCell id="J3v_I8ZAM5pnc3WIz0Ya-55" value="&lt;font style=&quot;font-size: 14px&quot;&gt;6. 推送资讯&amp;nbsp;&amp;nbsp;&lt;/font&gt;" style="text;html=1;strokeColor=none;fillColor=none;align=center;verticalAlign=middle;whiteSpace=wrap;rounded=0;" vertex="1" parent="1">
          <mxGeometry x="443.87" y="585" width="167.48" height="20" as="geometry" />
        </mxCell>
        <mxCell id="J3v_I8ZAM5pnc3WIz0Ya-56" value="&lt;font style=&quot;font-size: 14px&quot;&gt;1. 数据采集&lt;/font&gt;" style="text;html=1;strokeColor=none;fillColor=none;align=center;verticalAlign=middle;whiteSpace=wrap;rounded=0;" vertex="1" parent="1">
          <mxGeometry x="290" y="230" width="140" height="20" as="geometry" />
        </mxCell>
        <mxCell id="J3v_I8ZAM5pnc3WIz0Ya-59" value="" style="endArrow=classic;html=1;exitX=0.457;exitY=-0.388;exitDx=0;exitDy=0;exitPerimeter=0;" edge="1" parent="1">
          <mxGeometry width="50" height="50" relative="1" as="geometry">
            <mxPoint x="590.0050000000001" y="610.4591100000001" as="sourcePoint" />
            <mxPoint x="450" y="611.41" as="targetPoint" />
          </mxGeometry>
        </mxCell>
        <mxCell id="J3v_I8ZAM5pnc3WIz0Ya-66" value="" style="endArrow=classic;html=1;exitX=0.75;exitY=1;exitDx=0;exitDy=0;entryX=0.382;entryY=1.033;entryDx=0;entryDy=0;entryPerimeter=0;" edge="1" parent="1" source="J3v_I8ZAM5pnc3WIz0Ya-38" target="J3v_I8ZAM5pnc3WIz0Ya-38">
          <mxGeometry width="50" height="50" relative="1" as="geometry">
            <mxPoint x="540" y="340" as="sourcePoint" />
            <mxPoint x="446" y="352" as="targetPoint" />
            <Array as="points">
              <mxPoint x="500" y="291" />
              <mxPoint x="500" y="380" />
            </Array>
          </mxGeometry>
        </mxCell>
        <mxCell id="J3v_I8ZAM5pnc3WIz0Ya-67" value="&lt;span style=&quot;font-size: 14px&quot;&gt;媒体中心&lt;/span&gt;" style="rounded=0;whiteSpace=wrap;html=1;" vertex="1" parent="1">
          <mxGeometry x="710" y="80" width="100" height="40" as="geometry" />
        </mxCell>
        <mxCell id="J3v_I8ZAM5pnc3WIz0Ya-69" value="" style="endArrow=classic;html=1;strokeColor=#000000;" edge="1" parent="1">
          <mxGeometry width="50" height="50" relative="1" as="geometry">
            <mxPoint x="310" y="302" as="sourcePoint" />
            <mxPoint x="430" y="302" as="targetPoint" />
          </mxGeometry>
        </mxCell>
        <mxCell id="J3v_I8ZAM5pnc3WIz0Ya-71" value="&lt;font style=&quot;font-size: 14px&quot;&gt;return&lt;/font&gt;" style="text;html=1;strokeColor=none;fillColor=none;align=center;verticalAlign=middle;whiteSpace=wrap;rounded=0;" vertex="1" parent="1">
          <mxGeometry x="350.02" y="272" width="40" height="20" as="geometry" />
        </mxCell>
        <mxCell id="J3v_I8ZAM5pnc3WIz0Ya-72" value="" style="rounded=0;whiteSpace=wrap;html=1;rotation=-90;" vertex="1" parent="1">
          <mxGeometry x="695" y="335" width="125.95" height="11.25" as="geometry" />
        </mxCell>
        <mxCell id="J3v_I8ZAM5pnc3WIz0Ya-73" value="" style="endArrow=none;dashed=1;html=1;dashPattern=1 3;strokeWidth=2;" edge="1" parent="1" target="J3v_I8ZAM5pnc3WIz0Ya-72">
          <mxGeometry width="50" height="50" relative="1" as="geometry">
            <mxPoint x="760" y="730" as="sourcePoint" />
            <mxPoint x="760" y="140" as="targetPoint" />
          </mxGeometry>
        </mxCell>
        <mxCell id="J3v_I8ZAM5pnc3WIz0Ya-74" value="" style="endArrow=classic;html=1;strokeColor=#000000;" edge="1" parent="1">
          <mxGeometry width="50" height="50" relative="1" as="geometry">
            <mxPoint x="500" y="321" as="sourcePoint" />
            <mxPoint x="750" y="321" as="targetPoint" />
          </mxGeometry>
        </mxCell>
        <mxCell id="J3v_I8ZAM5pnc3WIz0Ya-77" value="&lt;font style=&quot;font-size: 14px&quot;&gt;3. 资源上传&amp;nbsp;&amp;nbsp;&lt;/font&gt;" style="text;html=1;strokeColor=none;fillColor=none;align=center;verticalAlign=middle;whiteSpace=wrap;rounded=0;" vertex="1" parent="1">
          <mxGeometry x="597" y="292" width="113" height="20" as="geometry" />
        </mxCell>
        <mxCell id="J3v_I8ZAM5pnc3WIz0Ya-78" value="" style="endArrow=classic;html=1;strokeColor=#000000;" edge="1" parent="1">
          <mxGeometry width="50" height="50" relative="1" as="geometry">
            <mxPoint x="751" y="370" as="sourcePoint" />
            <mxPoint x="500" y="370" as="targetPoint" />
          </mxGeometry>
        </mxCell>
        <mxCell id="J3v_I8ZAM5pnc3WIz0Ya-79" value="&lt;span style=&quot;font-size: 14px&quot;&gt;return url&lt;/span&gt;" style="text;html=1;strokeColor=none;fillColor=none;align=center;verticalAlign=middle;whiteSpace=wrap;rounded=0;" vertex="1" parent="1">
          <mxGeometry x="590" y="341.65999999999997" width="113" height="20" as="geometry" />
        </mxCell>
        <mxCell id="J3v_I8ZAM5pnc3WIz0Ya-80" value="" style="endArrow=classic;html=1;" edge="1" parent="1">
          <mxGeometry width="50" height="50" relative="1" as="geometry">
            <mxPoint x="460" y="550" as="sourcePoint" />
            <mxPoint x="590" y="550" as="targetPoint" />
          </mxGeometry>
        </mxCell>
        <mxCell id="J3v_I8ZAM5pnc3WIz0Ya-81" value="&lt;font style=&quot;font-size: 14px&quot;&gt;5.&amp;nbsp; 数据订阅&amp;nbsp;&amp;nbsp;&lt;/font&gt;" style="text;html=1;strokeColor=none;fillColor=none;align=center;verticalAlign=middle;whiteSpace=wrap;rounded=0;" vertex="1" parent="1">
          <mxGeometry x="440.19" y="523.59" width="167.48" height="20" as="geometry" />
        </mxCell>
        <mxCell id="J3v_I8ZAM5pnc3WIz0Ya-84" value="资讯模块" style="text;html=1;strokeColor=none;fillColor=none;align=center;verticalAlign=middle;whiteSpace=wrap;rounded=0;fontFamily=Helvetica;fontSize=11;fontColor=#9AC7BF;" vertex="1" parent="1">
          <mxGeometry x="370" y="571.72" width="60" height="20" as="geometry" />
        </mxCell>
        <mxCell id="J3v_I8ZAM5pnc3WIz0Ya-86" value="阅客模块" style="text;html=1;strokeColor=none;fillColor=none;align=center;verticalAlign=middle;whiteSpace=wrap;rounded=0;fontFamily=Helvetica;fontSize=11;fontColor=#7EA6E0;" vertex="1" parent="1">
          <mxGeometry x="370" y="346.24999999999994" width="60" height="20" as="geometry" />
        </mxCell>
      </root>
    </mxGraphModel>
  </diagram>
</mxfile>
